# xmcd CD database file
#
# Track frame offsets:
#	150
#	18495
#	34722
#	51255
#	71466
#	91928
#	110161
#	127503
#	141167
#	154552
#	172646
#	187368
#	206298
#	223110
#	241622
#	257180
#	271875
#	286653
#	304357
#	318188
#
# Disc length: 4452 seconds
#
# Revision: 2
# Processed by: cddbd v1.4b41PL1 Copyright (c) Steve Scherf et al.
# Submitted via: Feurio! 1.50.2ß - http://www.feurio.com
#
DISCID=13116214
DTITLE=Various Artist - Bravo Hits 29   CD2
DYEAR=1900
DGENRE=
TTITLE0=AHA - Summer moved on
TTITLE1=Sasha - Let me be the one
TTITLE2=Gabrielle - Rise
TTITLE3=All Saints - Pure Shores
TTITLE4=Destiny´s Child - Say my name
TTITLE5=Ricky Martin - Private Emotion
TTITLE6=Marc Anthony - You sang to me
TTITLE7=Tom Jones - Mama told me not to come
TTITLE8=Bomfunk Mc´s - Freestyler
TTITLE9=Artful Doogers - Movin too fast
TTITLE10=Miles -  Perfect World
TTITLE11=Band ohne Namen - Take my Haert
TTITLE12=Oceana - 48 Stunden
TTITLE13=Sabrina Setlur - Alles
TTITLE14=Nomansland - Greensleeves
TTITLE15=Mabel - Disco  Disco
TTITLE16=Scorei - Sag mir warum
TTITLE17=Fettes Brot - Da draussen
TTITLE18=Stefab Raab - Wadde hadde dudde da
TTITLE19=Die Bewohner - Big Brother is O.K
EXTD=
EXTT0=
EXTT1=
EXTT2=
EXTT3=
EXTT4=
EXTT5=
EXTT6=
EXTT7=
EXTT8=
EXTT9=
EXTT10=
EXTT11=
EXTT12=
EXTT13=
EXTT14=
EXTT15=
EXTT16=
EXTT17=
EXTT18=
EXTT19=
PLAYORDER=
